# xmcd
#
# Track frame offsets:
#	150
#	20612
#	42364
#	64005
#	86545
#	101501
#	122103
#	143534
#	159587
#	182728
#	202324
#	221297
#	241136
#	271526
#	312644
#
# Disc length: 4632 seconds
#
# Revision: 1
# Processed by: cddbd v1.5.2PL0 Copyright (c) Steve Scherf et al.
# Submitted via: audiograbber 1.83.01
#
DISCID=cf12160f
DTITLE=Four Tops - Indestructible  (Expended Edition)
DYEAR=2013
DGENRE=Soul
TTITLE0=Indestructible  
TTITLE1=Change Of Heart 
TTITLE2=If Ever A Love There Was 
TTITLE3=The Sun Ain't Gonna Shine 
TTITLE4=Next Time 
TTITLE5=Loco In Acapulco 
TTITLE6=Are You With Me 
TTITLE7=I'm Only Wounded 
TTITLE8=When You Dance 
TTITLE9=Let's Jam 
TTITLE10=The Four Of Us 
TTITLE11=Loco In Acapulco (Body Mix)  
TTITLE12=Loco In Acapulco (Ph Dub)
TTITLE13=Loco In Acapulco (Ph Balance Mix - Full Version)
TTITLE14=Indestructible (Extended Mix) 
EXTD=
EXTT0=
EXTT1=
EXTT2=
EXTT3=
EXTT4=
EXTT5=
EXTT6=
EXTT7=
EXTT8=
EXTT9=
EXTT10=
EXTT11=
EXTT12=
EXTT13=
EXTT14=
PLAYORDER=
